<svg width="774" height="399" viewBox="0 0 774 399" fill="none" xmlns="http://www.w3.org/2000/svg">
<rect width="774" height="399" rx="32" fill="#151515"/>
<rect x="32" y="32" width="477" height="222" rx="24" fill="#969696"/>
<rect x="529" y="32" width="110" height="52" rx="8" fill="#969696"/>
<rect x="662" y="36.5" width="65" height="9" rx="4.5" fill="#313131"/>
<rect x="662" y="57.5" width="92" height="9" rx="4.5" fill="#313131"/>
<rect x="662" y="70.5" width="71" height="9" rx="4.5" fill="#313131"/>
<rect x="529" y="100" width="110" height="52" rx="8" fill="#969696"/>
<rect x="662" y="104.5" width="65" height="9" rx="4.5" fill="#313131"/>
<rect x="662" y="125.5" width="92" height="9" rx="4.5" fill="#313131"/>
<rect x="662" y="138.5" width="71" height="9" rx="4.5" fill="#313131"/>
<rect x="529" y="168" width="110" height="52" rx="8" fill="#969696"/>
<rect x="662" y="172.5" width="65" height="9" rx="4.5" fill="#313131"/>
<rect x="662" y="193.5" width="92" height="9" rx="4.5" fill="#313131"/>
<rect x="662" y="206.5" width="71" height="9" rx="4.5" fill="#313131"/>
<rect x="529" y="236" width="110" height="52" rx="8" fill="#969696"/>
<rect x="662" y="240.5" width="65" height="9" rx="4.5" fill="#313131"/>
<rect x="662" y="261.5" width="92" height="9" rx="4.5" fill="#313131"/>
<rect x="662" y="274.5" width="71" height="9" rx="4.5" fill="#313131"/>
<rect x="529" y="304" width="110" height="52" rx="8" fill="#969696"/>
<rect x="662" y="308.5" width="65" height="9" rx="4.5" fill="#313131"/>
<rect x="662" y="329.5" width="92" height="9" rx="4.5" fill="#313131"/>
<rect x="662" y="342.5" width="71" height="9" rx="4.5" fill="#313131"/>
<rect x="32" y="270" width="178" height="16" rx="8" fill="#969696"/>
<rect x="32" y="318" width="387" height="16" rx="8" fill="#313131"/>
<rect x="32" y="344" width="305" height="16" rx="8" fill="#313131"/>
<rect x="32" y="342" width="305" height="16" rx="8" fill="#313131"/>
</svg>
