<svg width="1038" height="144" viewBox="0 0 1038 144" fill="none" xmlns="http://www.w3.org/2000/svg">
<rect width="330" height="144" rx="16" fill="#151515"/>
<path d="M181 69.0359C183.667 70.5755 183.667 74.4245 181 75.9641L150.25 93.7176C147.583 95.2572 144.25 93.3327 144.25 90.2535L144.25 54.7465C144.25 51.6673 147.583 49.7428 150.25 51.2824L181 69.0359Z" fill="#969696"/>
<rect x="296.5" y="110.5" width="17" height="17" rx="8.5" stroke="#969696"/>
<rect x="354" width="330" height="144" rx="16" fill="#151515"/>
<path d="M535 69.0359C537.667 70.5755 537.667 74.4245 535 75.9641L504.25 93.7176C501.583 95.2572 498.25 93.3327 498.25 90.2535L498.25 54.7465C498.25 51.6673 501.583 49.7428 504.25 51.2824L535 69.0359Z" fill="#969696"/>
<rect x="650" y="110" width="18" height="18" rx="9" fill="#138D1F"/>
<rect x="708" width="330" height="144" rx="16" fill="#151515"/>
<path d="M889 69.0359C891.667 70.5755 891.667 74.4245 889 75.9641L858.25 93.7176C855.583 95.2572 852.25 93.3327 852.25 90.2535L852.25 54.7465C852.25 51.6673 855.583 49.7428 858.25 51.2824L889 69.0359Z" fill="#969696"/>
<rect x="1004" y="110" width="18" height="18" rx="9" fill="#138D1F"/>
</svg>
