<svg width="1036" height="430" viewBox="0 0 1036 430" fill="none" xmlns="http://www.w3.org/2000/svg">
<rect width="244" height="430" rx="32" fill="#151515"/>
<path d="M137 212.036C139.667 213.575 139.667 217.425 137 218.964L106.25 236.718C103.583 238.257 100.25 236.333 100.25 233.254L100.25 197.746C100.25 194.667 103.583 192.743 106.25 194.282L137 212.036Z" fill="#969696"/>
<rect x="264" width="244" height="430" rx="32" fill="#151515"/>
<path d="M401 212.036C403.667 213.575 403.667 217.425 401 218.964L370.25 236.718C367.583 238.257 364.25 236.333 364.25 233.254L364.25 197.746C364.25 194.667 367.583 192.743 370.25 194.282L401 212.036Z" fill="#969696"/>
<rect x="528" width="244" height="430" rx="32" fill="#151515"/>
<path d="M665 212.036C667.667 213.575 667.667 217.425 665 218.964L634.25 236.718C631.583 238.257 628.25 236.333 628.25 233.254L628.25 197.746C628.25 194.667 631.583 192.743 634.25 194.282L665 212.036Z" fill="#969696"/>
<rect x="792" width="244" height="430" rx="32" fill="#151515"/>
<path d="M929 212.036C931.667 213.575 931.667 217.425 929 218.964L898.25 236.718C895.583 238.257 892.25 236.333 892.25 233.254L892.25 197.746C892.25 194.667 895.583 192.743 898.25 194.282L929 212.036Z" fill="#969696"/>
</svg>
